# xmcd
#
# Track frame offsets:
#	150
#	12237
#	22737
#	37525
#	50887
#	67287
#	80250
#	91150
#	103650
#	112700
#	125812
#	136647
#	149947
#	160637
#	174462
#	185475
#	196375
#	210287
#	223387
#	235645
#
# Disc length: 3285 seconds
#
# Revision: 1
# Processed by: cddbd v1.4b41PL1 Copyright (c) Steve Scherf et al.
# Submitted via: audiograbber 1.80
#
DISCID=0f0cd314
DTITLE=George Jones - THE LEGENDARY
DYEAR=1900
DGENRE=
TTITLE0=OUT OF OUR MINDS
TTITLE1=MAYBELLENE
TTITLE2=YESTERDAYS WINE
TTITLE3=SIZE SEVEN
TTITLE4=C. C. WATERBACK
TTITLE5=COLOR OF THE BLUES
TTITLE6=WHO SHOT SAM
TTITLE7=IF MY HEART HAD WINDOWS
TTITLE8=LOVE BUG
TTITLE9=WHEN THE GRASS GROWS OVER ME
TTITLE10=NEAR YOU
TTITLE11=WERE GONNA HOLD ON
TTITLE12=TAKE ME
TTITLE13=GOLDEN RING
TTITLE14=THE JET SET
TTITLE15=WE LOVED IT AWAY
TTITLE16=THE CEREMONY
TTITLE17=SOUTHERN CALIFORNIA
TTITLE18=TWO STORY HOUSE
TTITLE19=A PAIR OF OLD SNEAKERS
EXTD=
EXTT0=
EXTT1=
EXTT2=
EXTT3=
EXTT4=
EXTT5=
EXTT6=
EXTT7=
EXTT8=
EXTT9=
EXTT10=
EXTT11=
EXTT12=
EXTT13=
EXTT14=
EXTT15=
EXTT16=
EXTT17=
EXTT18=
EXTT19=
PLAYORDER=
